<?xml version="1.0" encoding="UTF-8"?>
<svg xmlns="http://www.w3.org/2000/svg" id="Layer_1" data-name="Layer 1" viewBox="0 0 24 24">
  <path d="m18,12c-3.314,0-6,2.686-6,6s2.686,6,6,6,6-2.686,6-6-2.686-6-6-6Zm3.683,5.712l-2.703,2.614c-.452.446-1.052.671-1.653.671s-1.203-.225-1.663-.674l-1.354-1.332c-.395-.387-.4-1.02-.014-1.414.386-.395,1.019-.401,1.414-.014l1.354,1.331c.144.142.38.139.522-.002l2.713-2.624c.397-.381,1.031-.37,1.414.029.382.398.369,1.031-.029,1.414Zm-11.683.288c-.552,0-1-.447-1-1v-2c0-.553.448-1,1-1,.355,0,.652.196.83.474,1.306-2.646,4.025-4.474,7.17-4.474.352,0,.696.031,1.037.075-.521-.714-1.218-1.292-2.037-1.651v-1.424c0-3.86-3.14-7-7-7S3,3.14,3,7v1.424c-1.763.774-3,2.531-3,4.576v6c0,2.757,2.243,5,5,5h7.726c-1.667-1.467-2.726-3.61-2.726-6ZM5,7c0-2.757,2.243-5,5-5s5,2.243,5,5v1H5v-1Z"/>
</svg>
