<?xml version="1.0" encoding="UTF-8"?>
<svg xmlns="http://www.w3.org/2000/svg" id="Layer_1" data-name="Layer 1" viewBox="0 0 24 24">
  <path d="m12.5.5v3c0,.276-.224.5-.5.5s-.5-.224-.5-.5V.5c0-.276.224-.5.5-.5s.5.224.5.5Zm-.5,19.5c-.276,0-.5.224-.5.5v3c0,.276.224.5.5.5s.5-.224.5-.5v-3c0-.276-.224-.5-.5-.5ZM4,12c0-.276-.224-.5-.5-.5H.5c-.276,0-.5.224-.5.5s.224.5.5.5h3c.276,0,.5-.224.5-.5Zm19.5-.5h-3c-.276,0-.5.224-.5.5s.224.5.5.5h3c.276,0,.5-.224.5-.5s-.224-.5-.5-.5ZM4.426,15.889l-2.584,1.524c-.238.141-.317.447-.177.685.094.158.26.246.431.246.087,0,.174-.022.254-.069l2.584-1.524c.238-.141.317-.447.177-.685-.142-.239-.447-.316-.685-.177Zm14.895-7.708c.087,0,.174-.022.254-.069l2.584-1.524c.238-.141.317-.447.177-.685-.142-.238-.447-.316-.685-.177l-2.584,1.524c-.238.141-.317.447-.177.685.094.158.26.246.431.246Zm2.838,9.232l-2.584-1.524c-.238-.139-.543-.062-.685.177-.141.237-.062.544.177.685l2.584,1.524c.08.047.167.069.254.069.171,0,.337-.088.431-.246.141-.237.062-.544-.177-.685ZM4.934,7.25l-2.584-1.524c-.237-.14-.544-.062-.685.177-.141.237-.062.544.177.685l2.584,1.524c.08.047.167.069.254.069.171,0,.337-.088.431-.246.141-.237.062-.544-.177-.685Zm1.653-5.408c-.142-.239-.448-.316-.685-.177-.238.141-.317.447-.177.685l1.524,2.584c.094.158.26.246.431.246.087,0,.174-.022.254-.069.238-.141.317-.447.177-.685l-1.524-2.584Zm10.163,17.225c-.142-.239-.447-.316-.685-.177-.238.141-.317.447-.177.685l1.524,2.584c.094.158.26.246.431.246.087,0,.174-.022.254-.069.238-.141.317-.447.177-.685l-1.524-2.584Zm-8.815-.177c-.237-.139-.544-.062-.685.177l-1.524,2.584c-.141.237-.062.544.177.685.08.047.167.069.254.069.171,0,.337-.088.431-.246l1.524-2.584c.141-.237.062-.544-.177-.685ZM18.098,1.665c-.237-.139-.543-.062-.685.177l-1.524,2.584c-.141.237-.062.544.177.685.08.047.167.069.254.069.171,0,.337-.088.431-.246l1.524-2.584c.141-.237.062-.544-.177-.685Z"/>
</svg>
