<?xml version="1.0" encoding="UTF-8"?>
<svg xmlns="http://www.w3.org/2000/svg" id="Layer_1" data-name="Layer 1" viewBox="0 0 24 24">
  <path d="m4,9c0-2.206,1.794-4,4-4s4,1.794,4,4-1.794,4-4,4-4-1.794-4-4ZM23.121.878c-.567-.566-1.319-.878-2.12-.878h-.003l-4,.002c-1.654,0-2.999,1.348-2.998,3v6.207s.001,0,.001,0c0,.653.357,1.255.931,1.568.268.147.563.22.859.22.335,0,.671-.094.964-.281.067-.043.13-.095.185-.152l1.488-1.56,2.575-.003c1.652,0,2.997-1.348,2.997-3v-3.002c0-.802-.312-1.555-.879-2.122Zm-8.121,20.622v1.5c0,.553-.448,1-1,1H5c-.552,0-1-.447-1-1v-6h-2c-1.103,0-2-.897-2-2V6c0-.553.448-1,1-1s1,.447,1,1v9h6.5c3.584,0,6.5,2.916,6.5,6.5Z"/>
</svg>
