<?xml version="1.0" encoding="UTF-8"?>
<svg xmlns="http://www.w3.org/2000/svg" id="Layer_1" data-name="Layer 1" viewBox="0 0 24 24">
  <path d="m24,3.538v16.462h-.593c-2.055,0-3.901-1.258-4.653-3.171l-2.292-5.829h-5.462c-.996,0-1.92-.681-2.08-1.664-.204-1.253.758-2.336,1.973-2.336h9.924c-.886-1.076-1.752-2.111-1.784-2.145-.861-.922-.813-2.373.109-3.235.923-.863,2.372-.819,3.23.098l1.628,1.821Z"/>
  <path d="m0,17v2c0,2.757,2.243,5,5,5h6c2.757,0,5-2.243,5-5v-2H0Zm9,4.5h-2c-.552,0-1-.448-1-1s.448-1,1-1h2c.552,0,1,.448,1,1s-.448,1-1,1Z"/>
  <path d="m7,9c0-2.209,1.791-4,4-4h5c0-2.761-2.239-5-5-5h-6C2.239,0,0,2.239,0,5v10h16v-2h-5c-2.209,0-4-1.791-4-4Z"/>
</svg>
